<svg width="102" height="28" viewBox="0 0 102 28" fill="none" xmlns="http://www.w3.org/2000/svg">
<path d="M22.6435 0.818181V27H17.8622L6.47159 10.5213H6.27983V27H0.744318V0.818181H5.60227L16.9034 17.2841H17.1335V0.818181H22.6435ZM35.9869 27.3835C34.0011 27.3835 32.2837 26.9616 30.8349 26.1179C29.3945 25.2656 28.2823 24.081 27.4982 22.5639C26.7141 21.0384 26.3221 19.2699 26.3221 17.2585C26.3221 15.2301 26.7141 13.4574 27.4982 11.9403C28.2823 10.4148 29.3945 9.23011 30.8349 8.38636C32.2837 7.53409 34.0011 7.10795 35.9869 7.10795C37.9727 7.10795 39.6857 7.53409 41.1261 8.38636C42.5749 9.23011 43.6914 10.4148 44.4755 11.9403C45.2596 13.4574 45.6516 15.2301 45.6516 17.2585C45.6516 19.2699 45.2596 21.0384 44.4755 22.5639C43.6914 24.081 42.5749 25.2656 41.1261 26.1179C39.6857 26.9616 37.9727 27.3835 35.9869 27.3835ZM36.0124 23.1648C36.9158 23.1648 37.6701 22.9091 38.2752 22.3977C38.8803 21.8778 39.3363 21.1705 39.6431 20.2756C39.9585 19.3807 40.1161 18.3622 40.1161 17.2202C40.1161 16.0781 39.9585 15.0597 39.6431 14.1648C39.3363 13.2699 38.8803 12.5625 38.2752 12.0426C37.6701 11.5227 36.9158 11.2628 36.0124 11.2628C35.1005 11.2628 34.3335 11.5227 33.7113 12.0426C33.0977 12.5625 32.6332 13.2699 32.3178 14.1648C32.011 15.0597 31.8576 16.0781 31.8576 17.2202C31.8576 18.3622 32.011 19.3807 32.3178 20.2756C32.6332 21.1705 33.0977 21.8778 33.7113 22.3977C34.3335 22.9091 35.1005 23.1648 36.0124 23.1648ZM59.6374 7.36364V11.4545H47.8121V7.36364H59.6374ZM50.4968 2.65909H55.9428V20.9659C55.9428 21.4687 56.0195 21.8608 56.1729 22.142C56.3263 22.4148 56.5394 22.6065 56.8121 22.7173C57.0934 22.8281 57.4173 22.8835 57.7837 22.8835C58.0394 22.8835 58.2951 22.8622 58.5508 22.8196C58.8065 22.7685 59.0025 22.7301 59.1389 22.7045L59.9954 26.7571C59.7227 26.8423 59.3391 26.9403 58.8448 27.0511C58.3505 27.1705 57.7496 27.2429 57.0423 27.2685C55.7298 27.3196 54.5792 27.1449 53.5906 26.7443C52.6104 26.3437 51.8477 25.7216 51.3022 24.8778C50.7567 24.0341 50.4883 22.9687 50.4968 21.6818V2.65909ZM71.9229 27.3835C69.9031 27.3835 68.1644 26.9744 66.707 26.1562C65.2582 25.3295 64.1417 24.1619 63.3576 22.6534C62.5735 21.1364 62.1815 19.3423 62.1815 17.2713C62.1815 15.2514 62.5735 13.4787 63.3576 11.9531C64.1417 10.4276 65.2454 9.23864 66.6687 8.38636C68.1005 7.53409 69.7795 7.10795 71.7056 7.10795C73.0011 7.10795 74.207 7.31676 75.3235 7.73438C76.4485 8.14347 77.4286 8.76136 78.2639 9.58807C79.1076 10.4148 79.7639 11.4545 80.2326 12.7074C80.7014 13.9517 80.9357 15.4091 80.9357 17.0795V18.5753H64.3548V15.2003H75.8093C75.8093 14.4162 75.6389 13.7216 75.2979 13.1165C74.957 12.5114 74.484 12.0384 73.8789 11.6974C73.2823 11.348 72.5877 11.1733 71.7951 11.1733C70.9684 11.1733 70.2354 11.3651 69.5962 11.7486C68.9656 12.1236 68.4712 12.6307 68.1133 13.2699C67.7553 13.9006 67.5721 14.6037 67.5636 15.3793V18.5881C67.5636 19.5597 67.7425 20.3991 68.1005 21.1065C68.467 21.8139 68.9826 22.3594 69.6474 22.7429C70.3121 23.1264 71.1005 23.3182 72.0124 23.3182C72.6175 23.3182 73.1715 23.233 73.6744 23.0625C74.1772 22.892 74.6076 22.6364 74.9656 22.2955C75.3235 21.9545 75.5962 21.5369 75.7837 21.0426L80.8207 21.375C80.565 22.5852 80.0408 23.642 79.2482 24.5455C78.4641 25.4403 77.4499 26.1392 76.2056 26.642C74.9698 27.1364 73.5423 27.3835 71.9229 27.3835ZM100.828 12.9631L95.842 13.2699C95.7567 12.8437 95.5735 12.4602 95.2923 12.1193C95.011 11.7699 94.6403 11.4929 94.18 11.2884C93.7283 11.0753 93.1871 10.9688 92.5565 10.9688C91.7127 10.9688 91.0011 11.1477 90.4215 11.5057C89.842 11.8551 89.5522 12.3239 89.5522 12.9119C89.5522 13.3807 89.7397 13.777 90.1147 14.1009C90.4897 14.4247 91.1332 14.6847 92.0451 14.8807L95.5991 15.5966C97.5082 15.9886 98.9315 16.6193 99.869 17.4886C100.806 18.358 101.275 19.5 101.275 20.9148C101.275 22.2017 100.896 23.331 100.137 24.3026C99.3874 25.2741 98.3562 26.0327 97.0437 26.5781C95.7397 27.1151 94.2354 27.3835 92.5309 27.3835C89.9315 27.3835 87.8604 26.8423 86.3178 25.7599C84.7837 24.669 83.8846 23.1861 83.6204 21.3111L88.9769 21.0298C89.1388 21.8224 89.5309 22.4276 90.1531 22.8452C90.7752 23.2543 91.5721 23.4588 92.5437 23.4588C93.4982 23.4588 94.2653 23.2756 94.8448 22.9091C95.4329 22.5341 95.7312 22.0526 95.7397 21.4645C95.7312 20.9702 95.5224 20.5653 95.1133 20.25C94.7042 19.9261 94.0735 19.679 93.2212 19.5085L89.8207 18.831C87.9031 18.4474 86.4755 17.7827 85.538 16.8366C84.609 15.8906 84.1445 14.6847 84.1445 13.2188C84.1445 11.9574 84.4854 10.8707 85.1673 9.95881C85.8576 9.04688 86.8249 8.34375 88.0692 7.84943C89.3221 7.35511 90.788 7.10795 92.467 7.10795C94.9471 7.10795 96.8988 7.6321 98.3221 8.6804C99.7539 9.72869 100.589 11.1562 100.828 12.9631Z" fill="black"/>
</svg>
